<svg width="493" height="132" viewBox="0 0 493 132" fill="none" xmlns="http://www.w3.org/2000/svg">
<mask id="path-1-outside-1_21_38" maskUnits="userSpaceOnUse" x="142" y="23" width="340" height="71" fill="black">
<rect fill="white" x="142" y="23" width="340" height="71"/>
<path d="M151.797 86.1536C150.252 86.1536 149 84.9013 149 83.3565V49.1618C149 47.617 150.252 46.3648 151.797 46.3648H158.078C158.691 46.3648 159.188 46.8616 159.188 47.4745V47.4745C159.188 48.554 160.711 49.0987 161.555 48.4253C162.39 47.7593 163.312 47.2061 164.322 46.7659C166.408 45.8567 168.6 45.4021 170.9 45.4021C173.895 45.4021 176.676 46.0439 179.243 47.3274C180.303 47.8249 181.266 48.4406 182.134 49.1745C183.83 50.6089 186.855 50.6195 188.525 49.1548C189.242 48.526 190.025 47.9703 190.875 47.4878C193.281 46.0974 195.902 45.4021 198.736 45.4021C201.784 45.4021 204.539 46.0439 206.999 47.3274C209.512 48.5574 211.491 50.4559 212.935 53.023C214.379 55.59 215.101 58.7988 215.101 62.6493V83.3565C215.101 84.9013 213.848 86.1536 212.304 86.1536H207.71C206.165 86.1536 204.913 84.9013 204.913 83.3565V64.0932C204.913 61.0984 204.191 58.7185 202.747 56.9537C201.303 55.1889 199.084 54.3065 196.089 54.3065C193.147 54.3065 190.928 55.1889 189.431 56.9537C187.933 58.7185 187.184 61.0984 187.184 64.0932V83.3565C187.184 84.9013 185.932 86.1536 184.387 86.1536H179.794C178.249 86.1536 176.997 84.9013 176.997 83.3565V64.0932C176.997 61.0449 176.221 58.6651 174.67 56.9537C173.173 55.1889 171.007 54.3065 168.172 54.3065C165.766 54.3065 163.653 55.0819 161.835 56.6328C160.07 58.1303 159.188 60.6171 159.188 64.0932V83.3565C159.188 84.9013 157.936 86.1536 156.391 86.1536H151.797Z"/>
<path d="M265.247 87.1162C262.894 87.1162 260.701 86.6349 258.669 85.6722C256.637 84.7096 254.979 83.3459 253.695 81.5811C252.465 79.7628 251.85 77.6236 251.85 75.1635C251.85 72.2221 252.572 69.8155 254.016 67.9438C255.46 66.072 257.439 64.6815 259.952 63.7724C262.519 62.8632 265.38 62.4086 268.536 62.4086H275.205C276.749 62.4086 278.059 61.139 277.725 59.6307C277.58 58.9756 277.378 58.3774 277.119 57.8361C276.584 56.6061 275.755 55.6702 274.632 55.0284C273.563 54.3332 272.226 53.9856 270.621 53.9856C268.75 53.9856 267.065 54.4134 265.568 55.2691C264.764 55.7153 264.135 56.3352 263.679 57.1288C262.999 58.3145 261.918 59.3603 260.551 59.3603H255.72C254.074 59.3603 252.753 57.9278 253.235 56.3535C253.74 54.7076 254.535 53.223 255.62 51.8999C257.332 49.8142 259.524 48.2098 262.198 47.0867C264.872 45.9637 267.734 45.4021 270.782 45.4021C274.525 45.4021 277.681 46.0974 280.248 47.4878C282.868 48.8783 284.874 50.857 286.264 53.4241C287.655 55.9376 288.35 58.9325 288.35 62.4086V74.5218C288.457 75.6983 288.885 76.5005 289.633 76.9283C289.711 76.9729 289.792 77.0152 289.875 77.0552C291.268 77.7233 292.602 78.8224 292.602 80.3671V83.3565C292.602 84.9013 291.346 86.174 289.807 86.0406C288.48 85.9256 287.299 85.7225 286.264 85.4316C284.606 84.9503 283.243 84.255 282.173 83.3459V83.3459C280.702 82.0219 278.002 81.8917 276.474 83.1493C275.65 83.8274 274.715 84.4545 273.67 85.0305C271.103 86.421 268.295 87.1162 265.247 87.1162ZM268.215 78.8536C269.98 78.8536 271.584 78.4525 273.028 77.6503C274.525 76.8481 275.729 75.725 276.638 74.2811C277.547 72.8371 278.002 71.1793 278.002 69.3075V69.3075C278.002 69.1303 277.858 68.9866 277.681 68.9866H269.177C268.001 68.9866 266.878 69.1738 265.808 69.5482C264.739 69.869 263.883 70.4038 263.241 71.1525C262.599 71.8478 262.279 72.8104 262.279 74.0404C262.279 75.6983 262.84 76.9283 263.963 77.7305C265.14 78.4792 266.557 78.8536 268.215 78.8536Z"/>
<path d="M300.347 86.1536C298.802 86.1536 297.55 84.9013 297.55 83.3565V49.1618C297.55 47.617 298.802 46.3648 300.347 46.3648H306.581C307.22 46.3648 307.738 46.8825 307.738 47.5213V47.5213C307.738 48.6354 309.303 49.2155 310.195 48.5477C311.11 47.8628 312.136 47.2956 313.273 46.8461C315.626 45.8834 317.979 45.4021 320.332 45.4021C324.932 45.4021 328.702 46.8996 331.643 49.8944C334.585 52.8358 336.055 57.1141 336.055 62.7295V83.3565C336.055 84.9013 334.803 86.1536 333.258 86.1536H328.665C327.12 86.1536 325.868 84.9013 325.868 83.3565V64.0932C325.868 61.0984 325.092 58.6918 323.541 56.8735C322.044 55.0017 319.824 54.0658 316.883 54.0658C313.942 54.0658 311.669 55.0017 310.064 56.8735C308.513 58.6918 307.738 61.0984 307.738 64.0932V83.3565C307.738 84.9013 306.486 86.1536 304.941 86.1536H300.347Z"/>
<path d="M359.762 87.1162C355.912 87.1162 352.596 86.1803 349.815 84.3085C347.087 82.3833 344.975 79.843 343.478 76.6877C342.034 73.4789 341.312 69.9493 341.312 66.0987C341.312 62.2482 342.06 58.772 343.558 55.6702C345.055 52.5149 347.194 50.0281 349.975 48.2098C352.756 46.338 356.019 45.4021 359.762 45.4021C362.329 45.4021 364.762 45.9369 367.062 47.0065V47.0065C369.345 48.0442 372.998 46.5514 372.998 44.0437V32.797C372.998 31.2523 374.251 30 375.795 30H380.55C382.094 30 383.347 31.2523 383.347 32.797V83.3565C383.347 84.9013 382.094 86.1536 380.55 86.1536H374.247C373.557 86.1536 372.998 85.5945 372.998 84.9048V84.9048C372.998 83.6429 371.064 82.994 370.076 83.7786C369.268 84.4197 368.371 84.9707 367.383 85.4316C364.976 86.5547 362.436 87.1162 359.762 87.1162ZM362.409 78.1316C364.548 78.1316 366.394 77.6236 367.944 76.6075C369.549 75.5913 370.806 74.2009 371.715 72.4361C372.624 70.6177 373.078 68.5588 373.078 66.2592C373.078 63.4247 372.517 61.1519 371.394 59.4405C370.271 57.6757 368.88 56.3922 367.222 55.59C365.565 54.7878 363.933 54.3867 362.329 54.3867C360.243 54.3867 358.398 54.8947 356.794 55.9109C355.243 56.927 354.013 58.3174 353.104 60.0823C352.195 61.7936 351.74 63.7991 351.74 66.0987C351.74 68.3449 352.195 70.3771 353.104 72.1954C354.013 74.0137 355.27 75.4576 356.874 76.5272C358.479 77.5968 360.324 78.1316 362.409 78.1316Z"/>
<path d="M402.732 87.1162C400.379 87.1162 398.186 86.6349 396.154 85.6722C394.122 84.7096 392.464 83.3459 391.18 81.5811C389.95 79.7628 389.335 77.6236 389.335 75.1635C389.335 72.2221 390.057 69.8155 391.501 67.9438C392.945 66.072 394.924 64.6815 397.438 63.7724C400.005 62.8632 402.866 62.4086 406.021 62.4086H412.69C414.235 62.4086 415.544 61.139 415.21 59.6307C415.065 58.9756 414.863 58.3774 414.605 57.8361C414.07 56.6061 413.241 55.6702 412.118 55.0284C411.048 54.3332 409.711 53.9856 408.107 53.9856C406.235 53.9856 404.55 54.4134 403.053 55.2691C402.25 55.7153 401.62 56.3352 401.165 57.1288C400.484 58.3145 399.404 59.3603 398.036 59.3603H393.206C391.559 59.3603 390.238 57.9278 390.72 56.3535C391.225 54.7076 392.02 53.223 393.106 51.8999C394.817 49.8142 397.01 48.2098 399.684 47.0867C402.358 45.9637 405.219 45.4021 408.267 45.4021C412.011 45.4021 415.166 46.0974 417.733 47.4878C420.354 48.8783 422.359 50.857 423.75 53.4241C425.14 55.9376 425.835 58.9325 425.835 62.4086V74.5218C425.942 75.6983 426.37 76.5005 427.119 76.9283C427.197 76.9729 427.278 77.0152 427.361 77.0552C428.754 77.7233 430.087 78.8224 430.087 80.3671V83.3565C430.087 84.9013 428.832 86.174 427.293 86.0406C425.965 85.9256 424.784 85.7225 423.75 85.4316C422.092 84.9503 420.728 84.255 419.658 83.3459V83.3459C418.187 82.0219 415.487 81.8917 413.959 83.1493C413.135 83.8274 412.2 84.4545 411.155 85.0305C408.588 86.421 405.78 87.1162 402.732 87.1162ZM405.7 78.8536C407.465 78.8536 409.069 78.4525 410.513 77.6503C412.011 76.8481 413.214 75.725 414.123 74.2811C415.032 72.8371 415.487 71.1793 415.487 69.3075V69.3075C415.487 69.1303 415.343 68.9866 415.166 68.9866H406.663C405.486 68.9866 404.363 69.1738 403.294 69.5482C402.224 69.869 401.368 70.4038 400.727 71.1525C400.085 71.8478 399.764 72.8104 399.764 74.0404C399.764 75.6983 400.326 76.9283 401.449 77.7305C402.625 78.4792 404.042 78.8536 405.7 78.8536Z"/>
<path d="M453.822 87.1162C449.811 87.1162 446.228 86.2605 443.072 84.5492C439.971 82.7843 437.537 80.3243 435.772 77.169C434.008 74.0137 433.125 70.3771 433.125 66.2592C433.125 61.9273 434.061 58.2105 435.933 55.1087C437.858 51.9534 440.398 49.5468 443.554 47.8889C446.763 46.2311 450.292 45.4021 454.143 45.4021C458.154 45.4021 461.737 46.2845 464.892 48.0494C468.047 49.7607 470.534 52.1673 472.353 55.2691C474.224 58.3709 475.16 62.0343 475.16 66.2592C475.16 70.2701 474.251 73.8533 472.433 77.0086C470.614 80.1638 468.101 82.6507 464.892 84.469C461.737 86.2338 458.047 87.1162 453.822 87.1162ZM453.982 78.2118C456.121 78.2118 457.966 77.6771 459.517 76.6075C461.122 75.4844 462.379 74.0137 463.288 72.1954C464.197 70.3236 464.651 68.2914 464.651 66.0987C464.651 63.5852 464.143 61.446 463.127 59.6812C462.165 57.9163 460.881 56.5794 459.277 55.6702C457.672 54.761 455.908 54.3065 453.982 54.3065C451.897 54.3065 450.051 54.8145 448.447 55.8306C446.896 56.8468 445.666 58.264 444.757 60.0823C443.901 61.8471 443.473 63.9061 443.473 66.2592C443.473 68.6123 443.928 70.698 444.837 72.5163C445.8 74.3346 447.083 75.7518 448.688 76.7679C450.292 77.7305 452.057 78.2118 453.982 78.2118Z"/>
<path d="M453.982 78.2118C456.121 78.2118 457.966 77.6771 459.517 76.6075C461.122 75.4844 462.379 74.0137 463.288 72.1954C464.197 70.3236 464.651 68.2914 464.651 66.0987C464.651 63.5852 464.143 61.446 463.127 59.6812C462.165 57.9163 460.881 56.5794 459.277 55.6702C457.672 54.761 455.908 54.3065 453.982 54.3065C451.897 54.3065 450.051 54.8145 448.447 55.8306C446.896 56.8468 445.666 58.264 444.757 60.0823C443.901 61.8471 443.473 63.9061 443.473 66.2592C443.473 68.6123 443.928 70.698 444.837 72.5163C445.8 74.3346 447.083 75.7518 448.688 76.7679C450.292 77.7305 452.057 78.2118 453.982 78.2118Z"/>
<path d="M238.572 86.1536C234.294 86.1536 231.059 85.1107 228.866 83.025C226.727 80.9393 225.657 77.8107 225.657 73.6393V57.5153C225.657 56.0975 224.508 54.9482 223.09 54.9482V54.9482C221.672 54.9482 220.523 53.7989 220.523 52.3812V48.9318C220.523 47.5141 221.672 46.3648 223.09 46.3648V46.3648C224.508 46.3648 225.657 45.2155 225.657 43.7977V39.4553C225.657 37.9105 226.909 36.6582 228.454 36.6582H233.128C234.673 36.6582 235.925 37.9105 235.925 39.4553V43.5677C235.925 45.1125 237.177 46.3648 238.722 46.3648H242.193C243.738 46.3648 244.99 47.617 244.99 49.1618V52.1512C244.99 53.6959 243.738 54.9482 242.193 54.9482H238.722C237.177 54.9482 235.925 56.2005 235.925 57.7453V73.7196C235.925 75.217 236.326 76.2331 237.128 76.7679C237.931 77.3027 238.973 77.5701 240.257 77.5701H242.193C243.738 77.5701 244.99 78.8224 244.99 80.3671V83.3565C244.99 84.9013 243.738 86.1536 242.193 86.1536H238.572Z"/>
</mask>
<path d="M151.797 86.1536C150.252 86.1536 149 84.9013 149 83.3565V49.1618C149 47.617 150.252 46.3648 151.797 46.3648H158.078C158.691 46.3648 159.188 46.8616 159.188 47.4745V47.4745C159.188 48.554 160.711 49.0987 161.555 48.4253C162.39 47.7593 163.312 47.2061 164.322 46.7659C166.408 45.8567 168.6 45.4021 170.9 45.4021C173.895 45.4021 176.676 46.0439 179.243 47.3274C180.303 47.8249 181.266 48.4406 182.134 49.1745C183.83 50.6089 186.855 50.6195 188.525 49.1548C189.242 48.526 190.025 47.9703 190.875 47.4878C193.281 46.0974 195.902 45.4021 198.736 45.4021C201.784 45.4021 204.539 46.0439 206.999 47.3274C209.512 48.5574 211.491 50.4559 212.935 53.023C214.379 55.59 215.101 58.7988 215.101 62.6493V83.3565C215.101 84.9013 213.848 86.1536 212.304 86.1536H207.71C206.165 86.1536 204.913 84.9013 204.913 83.3565V64.0932C204.913 61.0984 204.191 58.7185 202.747 56.9537C201.303 55.1889 199.084 54.3065 196.089 54.3065C193.147 54.3065 190.928 55.1889 189.431 56.9537C187.933 58.7185 187.184 61.0984 187.184 64.0932V83.3565C187.184 84.9013 185.932 86.1536 184.387 86.1536H179.794C178.249 86.1536 176.997 84.9013 176.997 83.3565V64.0932C176.997 61.0449 176.221 58.6651 174.67 56.9537C173.173 55.1889 171.007 54.3065 168.172 54.3065C165.766 54.3065 163.653 55.0819 161.835 56.6328C160.07 58.1303 159.188 60.6171 159.188 64.0932V83.3565C159.188 84.9013 157.936 86.1536 156.391 86.1536H151.797Z" stroke="url(#paint0_linear_21_38)" stroke-width="12.4616" mask="url(#path-1-outside-1_21_38)"/>
<path d="M265.247 87.1162C262.894 87.1162 260.701 86.6349 258.669 85.6722C256.637 84.7096 254.979 83.3459 253.695 81.5811C252.465 79.7628 251.85 77.6236 251.85 75.1635C251.85 72.2221 252.572 69.8155 254.016 67.9438C255.46 66.072 257.439 64.6815 259.952 63.7724C262.519 62.8632 265.38 62.4086 268.536 62.4086H275.205C276.749 62.4086 278.059 61.139 277.725 59.6307C277.58 58.9756 277.378 58.3774 277.119 57.8361C276.584 56.6061 275.755 55.6702 274.632 55.0284C273.563 54.3332 272.226 53.9856 270.621 53.9856C268.75 53.9856 267.065 54.4134 265.568 55.2691C264.764 55.7153 264.135 56.3352 263.679 57.1288C262.999 58.3145 261.918 59.3603 260.551 59.3603H255.72C254.074 59.3603 252.753 57.9278 253.235 56.3535C253.74 54.7076 254.535 53.223 255.62 51.8999C257.332 49.8142 259.524 48.2098 262.198 47.0867C264.872 45.9637 267.734 45.4021 270.782 45.4021C274.525 45.4021 277.681 46.0974 280.248 47.4878C282.868 48.8783 284.874 50.857 286.264 53.4241C287.655 55.9376 288.35 58.9325 288.35 62.4086V74.5218C288.457 75.6983 288.885 76.5005 289.633 76.9283C289.711 76.9729 289.792 77.0152 289.875 77.0552C291.268 77.7233 292.602 78.8224 292.602 80.3671V83.3565C292.602 84.9013 291.346 86.174 289.807 86.0406C288.48 85.9256 287.299 85.7225 286.264 85.4316C284.606 84.9503 283.243 84.255 282.173 83.3459V83.3459C280.702 82.0219 278.002 81.8917 276.474 83.1493C275.65 83.8274 274.715 84.4545 273.67 85.0305C271.103 86.421 268.295 87.1162 265.247 87.1162ZM268.215 78.8536C269.98 78.8536 271.584 78.4525 273.028 77.6503C274.525 76.8481 275.729 75.725 276.638 74.2811C277.547 72.8371 278.002 71.1793 278.002 69.3075V69.3075C278.002 69.1303 277.858 68.9866 277.681 68.9866H269.177C268.001 68.9866 266.878 69.1738 265.808 69.5482C264.739 69.869 263.883 70.4038 263.241 71.1525C262.599 71.8478 262.279 72.8104 262.279 74.0404C262.279 75.6983 262.84 76.9283 263.963 77.7305C265.14 78.4792 266.557 78.8536 268.215 78.8536Z" stroke="url(#paint1_linear_21_38)" stroke-width="12.4616" mask="url(#path-1-outside-1_21_38)"/>
<path d="M300.347 86.1536C298.802 86.1536 297.55 84.9013 297.55 83.3565V49.1618C297.55 47.617 298.802 46.3648 300.347 46.3648H306.581C307.22 46.3648 307.738 46.8825 307.738 47.5213V47.5213C307.738 48.6354 309.303 49.2155 310.195 48.5477C311.11 47.8628 312.136 47.2956 313.273 46.8461C315.626 45.8834 317.979 45.4021 320.332 45.4021C324.932 45.4021 328.702 46.8996 331.643 49.8944C334.585 52.8358 336.055 57.1141 336.055 62.7295V83.3565C336.055 84.9013 334.803 86.1536 333.258 86.1536H328.665C327.12 86.1536 325.868 84.9013 325.868 83.3565V64.0932C325.868 61.0984 325.092 58.6918 323.541 56.8735C322.044 55.0017 319.824 54.0658 316.883 54.0658C313.942 54.0658 311.669 55.0017 310.064 56.8735C308.513 58.6918 307.738 61.0984 307.738 64.0932V83.3565C307.738 84.9013 306.486 86.1536 304.941 86.1536H300.347Z" stroke="url(#paint2_linear_21_38)" stroke-width="12.4616" mask="url(#path-1-outside-1_21_38)"/>
<path d="M359.762 87.1162C355.912 87.1162 352.596 86.1803 349.815 84.3085C347.087 82.3833 344.975 79.843 343.478 76.6877C342.034 73.4789 341.312 69.9493 341.312 66.0987C341.312 62.2482 342.06 58.772 343.558 55.6702C345.055 52.5149 347.194 50.0281 349.975 48.2098C352.756 46.338 356.019 45.4021 359.762 45.4021C362.329 45.4021 364.762 45.9369 367.062 47.0065V47.0065C369.345 48.0442 372.998 46.5514 372.998 44.0437V32.797C372.998 31.2523 374.251 30 375.795 30H380.55C382.094 30 383.347 31.2523 383.347 32.797V83.3565C383.347 84.9013 382.094 86.1536 380.55 86.1536H374.247C373.557 86.1536 372.998 85.5945 372.998 84.9048V84.9048C372.998 83.6429 371.064 82.994 370.076 83.7786C369.268 84.4197 368.371 84.9707 367.383 85.4316C364.976 86.5547 362.436 87.1162 359.762 87.1162ZM362.409 78.1316C364.548 78.1316 366.394 77.6236 367.944 76.6075C369.549 75.5913 370.806 74.2009 371.715 72.4361C372.624 70.6177 373.078 68.5588 373.078 66.2592C373.078 63.4247 372.517 61.1519 371.394 59.4405C370.271 57.6757 368.88 56.3922 367.222 55.59C365.565 54.7878 363.933 54.3867 362.329 54.3867C360.243 54.3867 358.398 54.8947 356.794 55.9109C355.243 56.927 354.013 58.3174 353.104 60.0823C352.195 61.7936 351.74 63.7991 351.74 66.0987C351.74 68.3449 352.195 70.3771 353.104 72.1954C354.013 74.0137 355.27 75.4576 356.874 76.5272C358.479 77.5968 360.324 78.1316 362.409 78.1316Z" stroke="url(#paint3_linear_21_38)" stroke-width="12.4616" mask="url(#path-1-outside-1_21_38)"/>
<path d="M402.732 87.1162C400.379 87.1162 398.186 86.6349 396.154 85.6722C394.122 84.7096 392.464 83.3459 391.18 81.5811C389.95 79.7628 389.335 77.6236 389.335 75.1635C389.335 72.2221 390.057 69.8155 391.501 67.9438C392.945 66.072 394.924 64.6815 397.438 63.7724C400.005 62.8632 402.866 62.4086 406.021 62.4086H412.69C414.235 62.4086 415.544 61.139 415.21 59.6307C415.065 58.9756 414.863 58.3774 414.605 57.8361C414.07 56.6061 413.241 55.6702 412.118 55.0284C411.048 54.3332 409.711 53.9856 408.107 53.9856C406.235 53.9856 404.55 54.4134 403.053 55.2691C402.25 55.7153 401.62 56.3352 401.165 57.1288C400.484 58.3145 399.404 59.3603 398.036 59.3603H393.206C391.559 59.3603 390.238 57.9278 390.72 56.3535C391.225 54.7076 392.02 53.223 393.106 51.8999C394.817 49.8142 397.01 48.2098 399.684 47.0867C402.358 45.9637 405.219 45.4021 408.267 45.4021C412.011 45.4021 415.166 46.0974 417.733 47.4878C420.354 48.8783 422.359 50.857 423.75 53.4241C425.14 55.9376 425.835 58.9325 425.835 62.4086V74.5218C425.942 75.6983 426.37 76.5005 427.119 76.9283C427.197 76.9729 427.278 77.0152 427.361 77.0552C428.754 77.7233 430.087 78.8224 430.087 80.3671V83.3565C430.087 84.9013 428.832 86.174 427.293 86.0406C425.965 85.9256 424.784 85.7225 423.75 85.4316C422.092 84.9503 420.728 84.255 419.658 83.3459V83.3459C418.187 82.0219 415.487 81.8917 413.959 83.1493C413.135 83.8274 412.2 84.4545 411.155 85.0305C408.588 86.421 405.78 87.1162 402.732 87.1162ZM405.7 78.8536C407.465 78.8536 409.069 78.4525 410.513 77.6503C412.011 76.8481 413.214 75.725 414.123 74.2811C415.032 72.8371 415.487 71.1793 415.487 69.3075V69.3075C415.487 69.1303 415.343 68.9866 415.166 68.9866H406.663C405.486 68.9866 404.363 69.1738 403.294 69.5482C402.224 69.869 401.368 70.4038 400.727 71.1525C400.085 71.8478 399.764 72.8104 399.764 74.0404C399.764 75.6983 400.326 76.9283 401.449 77.7305C402.625 78.4792 404.042 78.8536 405.7 78.8536Z" stroke="url(#paint4_linear_21_38)" stroke-width="12.4616" mask="url(#path-1-outside-1_21_38)"/>
<path d="M453.822 87.1162C449.811 87.1162 446.228 86.2605 443.072 84.5492C439.971 82.7843 437.537 80.3243 435.772 77.169C434.008 74.0137 433.125 70.3771 433.125 66.2592C433.125 61.9273 434.061 58.2105 435.933 55.1087C437.858 51.9534 440.398 49.5468 443.554 47.8889C446.763 46.2311 450.292 45.4021 454.143 45.4021C458.154 45.4021 461.737 46.2845 464.892 48.0494C468.047 49.7607 470.534 52.1673 472.353 55.2691C474.224 58.3709 475.16 62.0343 475.16 66.2592C475.16 70.2701 474.251 73.8533 472.433 77.0086C470.614 80.1638 468.101 82.6507 464.892 84.469C461.737 86.2338 458.047 87.1162 453.822 87.1162ZM453.982 78.2118C456.121 78.2118 457.966 77.6771 459.517 76.6075C461.122 75.4844 462.379 74.0137 463.288 72.1954C464.197 70.3236 464.651 68.2914 464.651 66.0987C464.651 63.5852 464.143 61.446 463.127 59.6812C462.165 57.9163 460.881 56.5794 459.277 55.6702C457.672 54.761 455.908 54.3065 453.982 54.3065C451.897 54.3065 450.051 54.8145 448.447 55.8306C446.896 56.8468 445.666 58.264 444.757 60.0823C443.901 61.8471 443.473 63.9061 443.473 66.2592C443.473 68.6123 443.928 70.698 444.837 72.5163C445.8 74.3346 447.083 75.7518 448.688 76.7679C450.292 77.7305 452.057 78.2118 453.982 78.2118Z" stroke="url(#paint5_linear_21_38)" stroke-width="12.4616" mask="url(#path-1-outside-1_21_38)"/>
<path d="M453.982 78.2118C456.121 78.2118 457.966 77.6771 459.517 76.6075C461.122 75.4844 462.379 74.0137 463.288 72.1954C464.197 70.3236 464.651 68.2914 464.651 66.0987C464.651 63.5852 464.143 61.446 463.127 59.6812C462.165 57.9163 460.881 56.5794 459.277 55.6702C457.672 54.761 455.908 54.3065 453.982 54.3065C451.897 54.3065 450.051 54.8145 448.447 55.8306C446.896 56.8468 445.666 58.264 444.757 60.0823C443.901 61.8471 443.473 63.9061 443.473 66.2592C443.473 68.6123 443.928 70.698 444.837 72.5163C445.8 74.3346 447.083 75.7518 448.688 76.7679C450.292 77.7305 452.057 78.2118 453.982 78.2118Z" stroke="url(#paint6_linear_21_38)" stroke-width="12.4616" mask="url(#path-1-outside-1_21_38)"/>
<path d="M238.572 86.1536C234.294 86.1536 231.059 85.1107 228.866 83.025C226.727 80.9393 225.657 77.8107 225.657 73.6393V57.5153C225.657 56.0975 224.508 54.9482 223.09 54.9482V54.9482C221.672 54.9482 220.523 53.7989 220.523 52.3812V48.9318C220.523 47.5141 221.672 46.3648 223.09 46.3648V46.3648C224.508 46.3648 225.657 45.2155 225.657 43.7977V39.4553C225.657 37.9105 226.909 36.6582 228.454 36.6582H233.128C234.673 36.6582 235.925 37.9105 235.925 39.4553V43.5677C235.925 45.1125 237.177 46.3648 238.722 46.3648H242.193C243.738 46.3648 244.99 47.617 244.99 49.1618V52.1512C244.99 53.6959 243.738 54.9482 242.193 54.9482H238.722C237.177 54.9482 235.925 56.2005 235.925 57.7453V73.7196C235.925 75.217 236.326 76.2331 237.128 76.7679C237.931 77.3027 238.973 77.5701 240.257 77.5701H242.193C243.738 77.5701 244.99 78.8224 244.99 80.3671V83.3565C244.99 84.9013 243.738 86.1536 242.193 86.1536H238.572Z" stroke="url(#paint7_linear_21_38)" stroke-width="12.4616" mask="url(#path-1-outside-1_21_38)"/>
<g clip-path="url(#clip0_21_38)">
<path d="M74.4102 13.5245L74.3912 13.5405C73.4595 13.5378 72.5342 13.5703 71.6129 13.6206L38.9565 13.47C35.713 13.4551 33.1019 15.9931 33.1019 19.1602C33.1019 22.3179 35.6982 24.8711 38.9283 24.9011L60.4986 25.0006C63.7421 25.0155 66.3536 27.5772 66.3536 30.7444C66.3536 33.9115 63.7421 36.4491 60.4986 36.4342L42.4879 36.3511C39.2444 36.3362 36.6333 38.8741 36.6333 42.0413C36.6333 45.2085 39.2444 47.7701 42.4879 47.7851L46.1659 47.802C49.4094 47.817 52.0205 50.3787 52.0205 53.5458C52.0205 56.713 49.4094 59.2506 46.1659 59.2356L27.5924 59.15L19.4587 59.1125C16.2151 59.0975 13.6041 61.6355 13.6041 64.8026C13.6041 67.9698 16.2151 70.5315 19.4587 70.5464L29.1108 70.5909L40.9707 70.6456C44.2142 70.6606 46.8253 73.2222 46.8253 76.3894C46.8253 79.5566 44.2142 82.0945 40.9707 82.0796L33.948 82.0472L26.5501 82.0131C23.3066 81.9981 20.6951 84.5357 20.6951 87.7029C20.6951 90.87 23.3066 93.4317 26.5501 93.4467L43.6165 93.5254C53.3814 99.8536 62.8055 104.904 74.3908 104.975L74.4102 104.992L74.4296 104.975C94.1616 105.036 111.763 93.0294 118.466 74.9383C118.533 74.7878 118.589 74.6329 118.633 74.4746C122.096 64.7632 122.095 54.1791 118.629 44.4368C118.586 44.2856 118.533 44.1372 118.469 43.9929C111.769 25.8351 94.1644 13.6622 74.4286 13.5407L74.4102 13.5245ZM82.6373 21.453C94.3137 23.95 104.247 31.4342 109.692 41.837L95.9043 41.7734V41.777L75.6061 41.6834V39.6566L93.213 39.7378C91.0242 32.6617 87.4415 27.183 82.6373 21.453ZM22.4824 36.2589C19.2389 36.2439 16.6274 38.7819 16.6274 41.949C16.6274 45.1162 19.2389 47.6779 22.4824 47.6928L27.533 47.7161C30.7765 47.7311 33.3875 45.1935 33.3875 42.0263C33.3875 38.8592 30.7765 36.2971 27.533 36.2821L22.4824 36.2589ZM95.1316 48.8032L112.529 48.8834C114.526 55.791 114.526 63.095 112.529 69.9841L104.594 69.9476V69.9488L75.6025 69.8152V67.8583L95.2654 67.9489C96.3005 61.2572 96.2642 55.4936 95.1316 48.8032ZM93.5012 76.9297L109.692 77.0044C104.247 87.357 94.3134 94.7497 82.6369 97.1389C87.6463 91.2102 91.3448 84.3305 93.5012 76.9297ZM5.85459 81.9177C2.61109 81.9027 0 84.4403 0 87.6075C0 90.7746 2.61109 93.3363 5.85459 93.3512L11.9371 93.3793C15.1806 93.3943 17.7917 90.8567 17.7917 87.6895C17.7917 84.5224 15.1806 81.9607 11.9371 81.9457L5.85459 81.9177Z" fill="url(#paint8_linear_21_38)"/>
</g>
<defs>
<linearGradient id="paint0_linear_21_38" x1="152.231" y1="58.5581" x2="475.16" y2="58.5581" gradientUnits="userSpaceOnUse">
<stop stop-color="#770BFF"/>
<stop offset="1" stop-color="#FF3000"/>
</linearGradient>
<linearGradient id="paint1_linear_21_38" x1="152.231" y1="58.5581" x2="475.16" y2="58.5581" gradientUnits="userSpaceOnUse">
<stop stop-color="#770BFF"/>
<stop offset="1" stop-color="#FF3000"/>
</linearGradient>
<linearGradient id="paint2_linear_21_38" x1="152.231" y1="58.5581" x2="475.16" y2="58.5581" gradientUnits="userSpaceOnUse">
<stop stop-color="#770BFF"/>
<stop offset="1" stop-color="#FF3000"/>
</linearGradient>
<linearGradient id="paint3_linear_21_38" x1="152.231" y1="58.5581" x2="475.16" y2="58.5581" gradientUnits="userSpaceOnUse">
<stop stop-color="#770BFF"/>
<stop offset="1" stop-color="#FF3000"/>
</linearGradient>
<linearGradient id="paint4_linear_21_38" x1="152.231" y1="58.5581" x2="475.16" y2="58.5581" gradientUnits="userSpaceOnUse">
<stop stop-color="#770BFF"/>
<stop offset="1" stop-color="#FF3000"/>
</linearGradient>
<linearGradient id="paint5_linear_21_38" x1="152.231" y1="58.5581" x2="475.16" y2="58.5581" gradientUnits="userSpaceOnUse">
<stop stop-color="#770BFF"/>
<stop offset="1" stop-color="#FF3000"/>
</linearGradient>
<linearGradient id="paint6_linear_21_38" x1="152.231" y1="58.5581" x2="475.16" y2="58.5581" gradientUnits="userSpaceOnUse">
<stop stop-color="#770BFF"/>
<stop offset="1" stop-color="#FF3000"/>
</linearGradient>
<linearGradient id="paint7_linear_21_38" x1="152.231" y1="58.5581" x2="475.16" y2="58.5581" gradientUnits="userSpaceOnUse">
<stop stop-color="#770BFF"/>
<stop offset="1" stop-color="#FF3000"/>
</linearGradient>
<linearGradient id="paint8_linear_21_38" x1="-21.2117" y1="58.8173" x2="121.229" y2="58.8173" gradientUnits="userSpaceOnUse">
<stop offset="0.204998" stop-color="#5805C0"/>
<stop offset="1" stop-color="#FF5A2F"/>
</linearGradient>
<clipPath id="clip0_21_38">
<rect width="121.23" height="91.5219" fill="white" transform="translate(0 13.47)"/>
</clipPath>
</defs>
</svg>
